Coordinates
version=1
nRows=34
nColumns=33
inDegrees=yes

Units are S.I. units (second, meters, Newtons, ...)
Angles are in degrees.

endheader
time	ground_thorax_rot_x	ground_thorax_rot_y	ground_thorax_rot_z	ground_thorax_tx	ground_thorax_ty	ground_thorax_tz	clav_prot_r	clav_elev_r	scapula_abduction_r	scapula_elevation_r	scapula_upward_rot_r	scapula_winging_r	shoulder_elv_r	plane_of_elev_r	axial_rot_r	elbow_flexion_r	pro_sup_r	wrist_flex_r	wrist_dev_r	clav_prot_l	clav_elev_l	scapula_abduction_l	scapula_elevation_l	scapula_upward_rot_l	scapula_winging_l	shoulder_elv_l	plane_of_elev_l	axial_rot_l	elbow_flexion_l	pro_sup_l	wrist_flex_l	wrist_dev_l	
6.6300	26.092822	29.607884	42.222539	-107.960307	855.020946	-48.462347	12.815501	33.965182	27.050049	45.000000	-45.000000	269.645336	-1365.306166	21.269207	-158.620220	2518.525225	160.046747	16.596040	14.255954	-6.016606	-45.000000	-41.121009	45.000000	-45.000000	3706.656099	-2439.554256	25.523403	26.819524	1068.074344	33.940571	14.217230	-20.303997	
6.6400	26.087668	29.623110	42.248377	-107.745668	854.852412	-48.462174	12.815660	33.953740	27.057018	45.000000	-45.000000	269.680664	-1365.352055	21.278586	-158.712026	2518.527310	159.962675	16.581997	14.264978	-6.031833	-45.000000	-41.066801	45.000000	-45.000000	3706.663380	-2439.553809	25.541843	26.806786	1068.052260	33.957854	14.221814	-20.314496	
6.6500	26.079959	29.646911	42.265214	-107.517778	854.684881	-48.462633	12.837851	33.963711	27.028451	45.000000	-45.000000	269.744069	-1365.380478	21.273688	-158.815087	2518.527945	159.877304	16.618295	14.299544	-6.102202	-45.000000	-41.073884	45.000000	-45.000000	3706.642890	-2439.570404	25.504697	26.793729	1068.044799	33.963989	14.228678	-20.372159	
6.6600	26.068586	29.683781	42.293749	-107.260072	854.520069	-48.464497	12.849060	33.971747	27.017865	45.000000	-45.000000	269.785896	-1365.408957	21.274293	-158.894973	2518.527415	159.812229	16.635936	14.318303	-6.133082	-45.000000	-41.061199	45.000000	-45.000000	3706.633698	-2439.578964	25.497797	26.798037	1068.037340	33.974262	14.236294	-20.404896	
6.6700	26.060518	29.728871	42.321491	-106.972135	854.358437	-48.467102	12.858032	33.978675	27.015384	45.000000	-45.000000	269.814859	-1365.438438	21.277650	-158.965803	2518.523530	159.764295	16.642274	14.329871	-6.152828	-45.000000	-41.051162	45.000000	-45.000000	3706.623986	-2439.592545	25.495391	26.813502	1068.035699	33.985356	14.242457	-20.423414	
6.6800	26.049644	29.781963	42.355320	-106.651086	854.200968	-48.469754	12.868430	33.989870	27.014694	45.000000	-45.000000	269.843126	-1365.461596	21.278687	-159.027508	2518.520659	159.730357	16.656708	14.342528	-6.169525	-45.000000	-41.046241	45.000000	-45.000000	3706.610864	-2439.602763	25.494432	26.842471	1068.035246	33.995143	14.253019	-20.444964	
6.6900	26.047351	29.834833	42.385032	-106.297882	854.048682	-48.471428	12.875044	33.992353	27.031585	45.000000	-45.000000	269.856105	-1365.491652	21.284220	-159.083930	2518.515332	159.710955	16.647011	14.344496	-6.176390	-45.000000	-41.039890	45.000000	-45.000000	3706.597221	-2439.619743	25.499427	26.880272	1068.039956	34.007491	14.260368	-20.444014	
6.7000	26.043320	29.887805	42.420424	-105.914679	853.902704	-48.471220	12.885963	33.999941	27.046087	45.000000	-45.000000	269.877608	-1365.513689	21.286362	-159.136596	2518.514105	159.695490	16.653557	14.353984	-6.191238	-45.000000	-41.035892	45.000000	-45.000000	3706.577709	-2439.629980	25.503887	26.929102	1068.039115	34.018730	14.275582	-20.455630	
6.7100	26.046227	29.936006	42.453557	-105.502691	853.764256	-48.468667	12.893352	33.999637	27.079737	45.000000	-45.000000	269.886179	-1365.543303	21.292991	-159.183830	2518.512096	159.685436	16.633977	14.353501	-6.198089	-45.000000	-41.029093	45.000000	-45.000000	3706.558459	-2439.644139	25.515643	26.988194	1068.044408	34.033649	14.286981	-20.445253	
6.7200	26.044847	29.983180	42.493832	-105.062504	853.634294	-48.463830	12.905957	34.006725	27.105401	45.000000	-45.000000	269.907378	-1365.560675	21.297177	-159.223658	2518.514509	159.670546	16.639404	14.365523	-6.211253	-45.000000	-41.022787	45.000000	-45.000000	3706.535140	-2439.647792	25.529024	27.059935	1068.044565	34.047689	14.307264	-20.454943	
6.7300	26.049986	30.028239	42.531944	-104.594438	853.513237	-48.457097	12.918109	34.011573	27.140388	45.000000	-45.000000	269.918911	-1365.581176	21.306129	-159.260283	2518.515211	159.654187	16.624033	14.370669	-6.221860	-45.000000	-41.017178	45.000000	-45.000000	3706.510998	-2439.657566	25.543861	27.140738	1068.051209	34.065767	14.323095	-20.447738	
6.7400	26.049979	30.074726	42.577963	-104.098969	853.400700	-48.448925	12.935203	34.024522	27.164986	45.000000	-45.000000	269.942667	-1365.590772	21.311078	-159.294451	2518.519498	159.629594	16.635398	14.390146	-6.238468	-45.000000	-41.010582	45.000000	-45.000000	3706.484429	-2439.658353	25.558872	27.232548	1068.051080	34.083891	14.347188	-20.461507	
6.7500	26.051251	30.120904	42.625590	-103.576722	853.295264	-48.439595	12.950758	34.034428	27.204939	45.000000	-45.000000	269.955743	-1365.609274	21.316597	-159.332287	2518.522523	159.603997	16.619173	14.399646	-6.253976	-45.000000	-41.009951	45.000000	-45.000000	3706.456542	-2439.666676	25.570403	27.330460	1068.061542	34.106292	14.362913	-20.454262	
6.7600	26.046737	30.166477	42.678590	-103.028672	853.194542	-48.429098	12.969289	34.047354	27.238545	45.000000	-45.000000	269.980654	-1365.620107	21.318246	-159.371266	2518.528959	159.572873	16.629168	14.424389	-6.272890	-45.000000	-41.009653	45.000000	-45.000000	3706.426149	-2439.668774	25.582329	27.434352	1068.066649	34.128250	14.385369	-20.467122	
6.7700	26.044486	30.210211	42.731686	-102.455856	853.095295	-48.417131	12.984630	34.056840	27.285188	45.000000	-45.000000	269.994067	-1365.638347	21.325648	-159.417350	2518.532222	159.544978	16.607864	14.437024	-6.289445	-45.000000	-41.008542	45.000000	-45.000000	3706.393725	-2439.678723	25.596168	27.539754	1068.078101	34.154798	14.399418	-20.455411	
6.7800	26.034848	30.253364	42.791774	-101.859360	852.993795	-48.403197	13.002349	34.066862	27.325741	45.000000	-45.000000	270.017671	-1365.650802	21.330109	-159.467365	2518.537675	159.516500	16.609009	14.462721	-6.308737	-45.000000	-41.006426	45.000000	-45.000000	3706.358580	-2439.681983	25.611316	27.648295	1068.083488	34.179979	14.419114	-20.460198	
6.7900	26.020568	30.295325	42.858882	-101.239913	852.886151	-48.386723	13.016460	34.075011	27.380937	45.000000	-45.000000	270.031612	-1365.675038	21.335882	-159.526051	2518.540321	159.495713	16.577416	14.473667	-6.326707	-45.000000	-41.005962	45.000000	-45.000000	3706.322683	-2439.689529	25.625116	27.754864	1068.096115	34.207605	14.429631	-20.439386	
6.8000	25.996404	30.337056	42.936210	-100.598016	852.768743	-48.367200	13.034236	34.084871	27.424897	45.000000	-45.000000	270.060650	-1365.690242	21.338242	-159.586211	2518.548924	159.476425	16.578089	14.501621	-6.347429	-45.000000	-41.001759	45.000000	-45.000000	3706.285797	-2439.687346	25.641242	27.861902	1068.097314	34.231483	14.450205	-20.440560	
6.8100	25.972049	30.376566	43.015494	-99.933699	852.638494	-48.344247	13.047622	34.094841	27.477696	45.000000	-45.000000	270.079260	-1365.714279	21.347747	-159.653923	2518.552220	159.466651	16.545093	14.513857	-6.366606	-45.000000	-40.992057	45.000000	-45.000000	3706.248221	-2439.690955	25.660933	27.966744	1068.102398	34.256424	14.463099	-20.414629	
6.8200	25.936008	30.418241	43.108190	-99.246834	852.493107	-48.317673	13.065125	34.103967	27.523746	45.000000	-45.000000	270.112462	-1365.733264	21.348333	-159.724354	2518.563956	159.458584	16.543269	14.543201	-6.391149	-45.000000	-40.987812	45.000000	-45.000000	3706.209316	-2439.687846	25.673910	28.073763	1068.099688	34.275145	14.484916	-20.408946	
6.8300	25.902319	30.455527	43.200621	-98.536995	852.331078	-48.287432	13.076604	34.118209	27.580805	45.000000	-45.000000	270.138430	-1365.759785	21.355130	-159.801954	2518.573183	159.458154	16.515644	14.559478	-6.416187	-45.000000	-40.980212	45.000000	-45.000000	3706.170750	-2439.692743	25.690205	28.180266	1068.097662	34.292763	14.502491	-20.381305	
6.8400	25.861949	30.495203	43.304512	-97.804032	852.151765	-48.253613	13.094512	34.127403	27.627211	45.000000	-45.000000	270.177687	-1365.775784	21.359324	-159.881346	2518.588374	159.458944	16.510223	14.590496	-6.443767	-45.000000	-40.975469	45.000000	-45.000000	3706.129112	-2439.693520	25.699200	28.288987	1068.086364	34.303799	14.526999	-20.366275	
6.8500	25.836107	30.527474	43.394770	-97.047709	851.955197	-48.216341	13.105054	34.145775	27.678376	45.000000	-45.000000	270.205022	-1365.793879	21.380008	-159.965110	2518.591397	159.465804	16.475683	14.606392	-6.466164	-45.000000	-40.960578	45.000000	-45.000000	3706.089640	-2439.709568	25.721022	28.397152	1068.078415	34.312717	14.547975	-20.327980	
6.8600	25.802525	30.565835	43.498741	-96.268034	851.742021	-48.175748	13.123991	34.151407	27.717015	45.000000	-45.000000	270.238840	-1365.804300	21.400775	-160.051923	2518.594801	159.473223	16.448740	14.632938	-6.489840	-45.000000	-40.945222	45.000000	-45.000000	3706.044980	-2439.719535	25.735853	28.508044	1068.068295	34.314478	14.570098	-20.292788	
6.8700	25.777997	30.598451	43.592388	-95.464868	851.513288	-48.131895	13.135214	34.169934	27.763196	45.000000	-45.000000	270.263410	-1365.823647	21.429174	-160.144999	2518.588906	159.482541	16.404917	14.648922	-6.511397	-45.000000	-40.922093	45.000000	-45.000000	3706.004100	-2439.740881	25.764518	28.622097	1068.063729	34.312030	14.591597	-20.244606	
6.8800	25.737708	30.640444	43.705959	-94.638248	851.270411	-48.084819	13.155363	34.171800	27.800758	45.000000	-45.000000	270.293964	-1365.844358	21.450457	-160.244539	2518.584159	159.490863	16.363054	14.674860	-6.536867	-45.000000	-40.899161	45.000000	-45.000000	3705.955419	-2439.751075	25.783778	28.740897	1068.060632	34.302956	14.610935	-20.196221	
6.8900	25.700300	30.677464	43.813156	-93.787943	851.014934	-48.034534	13.166526	34.192972	27.851131	45.000000	-45.000000	270.320592	-1365.879924	21.468187	-160.352283	2518.575559	159.496934	16.318847	14.694862	-6.562524	-45.000000	-40.873609	45.000000	-45.000000	3705.913062	-2439.770180	25.816549	28.865446	1068.062157	34.290226	14.634670	-20.145758	
6.9000	25.643354	30.724671	43.946048	-92.913774	850.748502	-47.981144	13.186678	34.194059	27.896745	45.000000	-45.000000	270.355639	-1365.917409	21.475788	-160.467744	2518.574304	159.500629	16.274390	14.726977	-6.597053	-45.000000	-40.852398	45.000000	-45.000000	3705.860208	-2439.774480	25.833134	28.995983	1068.061598	34.274117	14.654922	-20.093311	
6.9100	25.593416	30.763561	44.070229	-92.015369	850.472677	-47.924873	13.197005	34.220423	27.957828	45.000000	-45.000000	270.392797	-1365.965301	21.478663	-160.590570	2518.575231	159.499644	16.236245	14.754041	-6.631371	-45.000000	-40.833609	45.000000	-45.000000	3705.816738	-2439.790327	25.862327	29.133916	1068.058208	34.257961	14.685252	-20.044244	
6.9200	25.539454	30.806734	44.204430	-91.092473	850.188906	-47.866122	13.212391	34.230373	28.013763	45.000000	-45.000000	270.433550	-1366.008192	21.483473	-160.718537	2518.576813	159.497958	16.185621	14.785764	-6.668695	-45.000000	-40.813824	45.000000	-45.000000	3705.763665	-2439.800865	25.882403	29.277516	1068.051540	34.243212	14.711572	-19.984725	
6.9300	25.493633	30.845374	44.331033	-90.144712	849.898355	-47.805415	13.223689	34.258029	28.071877	45.000000	-45.000000	270.474299	-1366.050286	21.493261	-160.850484	2518.576221	159.493648	16.137662	14.815967	-6.703447	-45.000000	-40.795361	45.000000	-45.000000	3705.717476	-2439.821807	25.913470	29.427053	1068.042941	34.231101	14.745748	-19.925473	
6.9400	25.443605	30.888310	44.468360	-89.171834	849.601886	-47.743353	13.240334	34.264974	28.122181	45.000000	-45.000000	270.516907	-1366.085353	21.509042	-160.986337	2518.574576	159.491465	16.075705	14.852305	-6.741950	-45.000000	-40.773692	45.000000	-45.000000	3705.660703	-2439.835269	25.934106	29.580513	1068.032887	34.222305	14.773302	-19.854787	
6.9500	25.392020	30.931228	44.609365	-88.173742	849.299988	-47.680525	13.258291	34.282752	28.170131	45.000000	-45.000000	270.560484	-1366.122494	21.529208	-161.126871	2518.572557	159.491098	16.012335	14.887021	-6.780578	-45.000000	-40.755719	45.000000	-45.000000	3705.609704	-2439.852441	25.958931	29.738051	1068.022005	34.218089	14.804843	-19.780543	
6.9600	25.342262	30.973399	44.750808	-87.150568	848.992746	-47.617461	13.274078	34.289406	28.220137	45.000000	-45.000000	270.606782	-1366.160442	21.548945	-161.271499	2518.568756	159.496741	15.944166	14.923451	-6.819210	-45.000000	-40.731305	45.000000	-45.000000	3705.552805	-2439.867816	25.981200	29.899013	1068.011385	34.217859	14.833256	-19.701927	
